{"title":"Phata Poster Nikhla Hero (2013) SCAMRIP Xvid [1CD] IcTv Hindi","uid":8942339,"size":725899606,"categoryP":"video","categoryS":"movies","magnet":"?xt=urn:btih:d7c9868c459498a997813d3ae6f83d9d9c08c15a&amp;dn=Phata+Poster+Nikhla+Hero+%282013%29+SCAMRIP+Xvid+%5B1CD%5D+IcTv+Hindi&amp;tr=udp%3A%2F%2Ftracker.openbittorrent.com%3A80&amp;tr=udp%3A%2F%2Fopen.demonii.com%3A1337&amp;tr=udp%3A%2F%2Ftracker.coppersurfer.tk%3A6969&amp;tr=udp%3A%2F%2Fexodus.desync.com%3A6969","seeders":1,"leechers":0,"uploader":"SJonam","files":1,"time":1379694480,"description":" &lt;a href=&quot;http://s18.postimg.org/q1xcnecvd/9999999999.jpg&quot; rel=&quot;nofollow&quot; target=&quot;_NEW&quot;&gt;http://s18.postimg.org/q1xcnecvd/9999999999.jpg&lt;/a&gt; &lt;a href=&quot;\nhttp://i.imgur.com/lJOgAo2.png&quot; rel=&quot;nofollow&quot; target=&quot;_NEW&quot;&gt;\nhttp://i.imgur.com/lJOgAo2.png&lt;/a&gt; &lt;a href=&quot;\nhttp://img401.imageshack.us/img401/6659/zkxu.jpg&quot; rel=&quot;nofollow&quot; target=&quot;_NEW&quot;&gt;\nhttp://img401.imageshack.us/img401/6659/zkxu.jpg&lt;/a&gt; &lt;a href=&quot;\nhttp://t1.someimage.com/kAJqYQT.jpg&quot; rel=&quot;nofollow&quot; target=&quot;_NEW&quot;&gt;\nhttp://t1.someimage.com/kAJqYQT.jpg&lt;/a&gt; &lt;a href=&quot;\nhttp://t1.someimage.com/Atud8RR.jpg&quot; rel=&quot;nofollow&quot; target=&quot;_NEW&quot;&gt;\nhttp://t1.someimage.com/Atud8RR.jpg&lt;/a&gt; &lt;a href=&quot;\nhttp://t1.someimage.com/5FbgaLm.jpg&quot; rel=&quot;nofollow&quot; target=&quot;_NEW&quot;&gt;\nhttp://t1.someimage.com/5FbgaLm.jpg&lt;/a&gt; &lt;a href=&quot;\nhttp://t1.someimage.com/Lapanvp.jpg&quot; rel=&quot;nofollow&quot; target=&quot;_NEW&quot;&gt;\nhttp://t1.someimage.com/Lapanvp.jpg&lt;/a&gt; &lt;a href=&quot;\nhttp://t1.someimage.com/dt7ENsH.jpg&quot; rel=&quot;nofollow&quot; target=&quot;_NEW&quot;&gt;\nhttp://t1.someimage.com/dt7ENsH.jpg&lt;/a&gt;\n\nMedia Info - \nGeneral\nComplete name : Phata Poster Nikhla Hero (2013) SCAM RIP - Xvid - [1-CD] - Team IcTv Exclusive.avi\nFormat : AVI\nFormat/Info : Audio Video Interleave\nFile size : 692 MiB\nDuration : 2h 18mn\nOverall bit rate : 701 Kbps\n\nVideo\nID : 0\nFormat : MPEG-4 Visual\nFormat profile : Advanced Simple@L5\nFormat settings, BVOP : 2\nFormat settings, QPel : No\nFormat settings, GMC : No warppoints\nFormat settings, Matrix : Default (H.263)\nCodec ID : XVID\nCodec ID/Hint : XviD\nDuration : 2h 18mn\nBit rate : 567 Kbps\nWidth : 640 pixels\nHeight : 272 pixels\nDisplay aspect ratio : 2.35:1\nFrame rate : 25.000 fps\nColor space : YUV\nChroma subsampling : 4:2:0\nBit depth : 8 bits\nScan type : Progressive\nCompression mode : Lossy\nBits/(Pixel*Frame) : 0.130\nStream size : 560 MiB (81%)\nWriting library : XviD 1.2.1 (UTC 2008-12-04)\n\nAudio\nID : 1\nFormat : MPEG Audio\nFormat version : Version 1\nFormat profile : Layer 3\nMode : Joint stereo\nMode extension : MS Stereo\nCodec ID : 55\nCodec ID/Hint : MP3\nDuration : 2h 18mn\nBit rate mode : Constant\nBit rate : 128 Kbps\nChannel(s) : 2 channels\nSampling rate : 48.0 KHz\nCompression mode : Lossy\nStream size : 126 MiB (18%)\nAlignment : Aligned on interleaves\nInterleave, duration : 160 ms (4.00 video frames)\nInterleave, preload duration : 216 ms\nTitle : VTS_01_1 Tc0 L2 2ch 48 128 DELAY 0ms\nWriting library : LAME3.99r\nEncoding settings : -m j -V 4 -q 2 -lowpass 17 -b 128\n &lt;a href=&quot;\nhttp://www.multiupload.nl/VMIC0NF5W6&quot; rel=&quot;nofollow&quot; target=&quot;_NEW&quot;&gt;\nhttp://www.multiupload.nl/VMIC0NF5W6&lt;/a&gt;\n\nRipper : Lottery\n\nSeeding 24x7... Extreme Seeding...\n\n\nEnjoy!\n","torrent":{"xt":"urn:btih:d7c9868c459498a997813d3ae6f83d9d9c08c15a","amp;dn":"Phata+Poster+Nikhla+Hero+%282013%29+SCAMRIP+Xvid+%5B1CD%5D+IcTv+Hindi","amp;tr":["udp%3A%2F%2Ftracker.openbittorrent.com%3A80","udp%3A%2F%2Fopen.demonii.com%3A1337","udp%3A%2F%2Ftracker.coppersurfer.tk%3A6969","udp%3A%2F%2Fexodus.desync.com%3A6969"],"infoHash":"d7c9868c459498a997813d3ae6f83d9d9c08c15a","infoHashBuffer":{"type":"Buffer","data":[215,201,134,140,69,148,152,169,151,129,61,58,230,248,61,157,156,8,193,90]},"announce":[],"urlList":[]}}